# xmcd
#
# Track frame offsets: 
#        150
#        16906
#        37307
#        54827
#        74345
#        94597
#        110878
#        140663
#        156650
#        172120
#        192381
#        209195
#
# Disc length: 3006 seconds
#
# Revision: 0
# Processed by: cddbd v1.5.2PL0 Copyright (c) Steve Scherf et al.
# Submitted via: ExactAudioCopyFreeDBPlugin 1.0
#
DISCID=bf0bbc0c
DTITLE=Tropical Whiskey Band - Walking On a Thin Line
DYEAR=2013
DGENRE=Blues
TTITLE0=Never Can Tell
TTITLE1=Just 1 Beer
TTITLE2=Walking On a Thin Line
TTITLE3=Hurricane
TTITLE4=Back Home
TTITLE5=One Eyed Girl
TTITLE6=No Working Man's Blues
TTITLE7=One Foot in the Hammock
TTITLE8=Can't Roll Your Own
TTITLE9=Alone
TTITLE10=Chains On My Heart
TTITLE11=A Night At the Bar
EXTD=
EXTT0=
EXTT1=
EXTT2=
EXTT3=
EXTT4=
EXTT5=
EXTT6=
EXTT7=
EXTT8=
EXTT9=
EXTT10=
EXTT11=
PLAYORDER=
